PathFileType	4	(X/Y/Z)	C:\Users\86182\Documents\cortex\Trimmed_M4_L12.trc
DataRate	CameraRate	NumFrames	NumMarkers	Units	OrigDataRate	OrigDataStartFrame	OrigNumFrames
100.00	100.00	       154	2	mm	100.00	721	       901
Frame#	Time	gripper			box			
		X1	Y1	Z1	X2	Y2	Z2	

721	7.200	274.50421	150.39513	292.48724	276.77786	147.76756	157.14258	
722	7.210	274.50491	150.39548	292.48730	276.77878	147.76799	157.14297	
723	7.220	274.50531	150.39568	292.48730	276.77917	147.76822	157.14305	
724	7.230	274.50519	150.39561	292.48730	276.77905	147.76823	157.14285	
725	7.240	274.50464	150.39534	292.48724	276.77872	147.76810	157.14252	
726	7.250	274.50385	150.39496	292.48724	276.77856	147.76793	157.14236	
727	7.260	274.50308	150.39459	292.48718	276.77899	147.76790	157.14252	
728	7.270	274.50244	150.39427	292.48715	276.78000	147.76805	157.14301	
729	7.280	274.50198	150.39404	292.48712	276.78134	147.76830	157.14362	
730	7.290	274.50168	150.39389	292.48712	276.78259	147.76849	157.14410	
731	7.300	274.50153	150.39381	292.48712	276.78345	147.76855	157.14429	
732	7.310	274.50143	150.39378	292.48712	276.78354	147.76839	157.14407	
733	7.320	274.50143	150.39377	292.48712	276.78284	147.76804	157.14357	
734	7.330	274.50146	150.39378	292.48712	276.78162	147.76761	157.14294	
735	7.340	274.50150	150.39380	292.48712	276.78049	147.76730	157.14249	
736	7.350	274.50153	150.39381	292.48712	276.78003	147.76726	157.14240	
737	7.360	274.50156	150.39383	292.48712	276.78067	147.76747	157.14270	
738	7.370	274.50159	150.39383	292.48712	276.78238	147.76787	157.14328	
739	7.380	274.50159	150.39383	292.48712	276.78473	147.76826	157.14383	
740	7.390	274.50156	150.39383	292.48712	276.78720	147.76851	157.14407	
741	7.400	274.50156	150.39381	292.48712	276.78915	147.76845	157.14389	
742	7.410	274.50153	150.39380	292.48712	276.78998	147.76810	157.14322	
743	7.420	274.50150	150.39380	292.48712	276.78909	147.76752	157.14230	
744	7.430	274.50153	150.39380	292.48712	276.78635	147.76680	157.14125	
745	7.440	274.50159	150.39384	292.48712	276.78238	147.76602	157.14017	
746	7.450	274.50174	150.39391	292.48712	276.77826	147.76526	157.13913	
747	7.460	274.50198	150.39404	292.48712	276.77502	147.76469	157.13837	
748	7.470	274.50235	150.39423	292.48718	276.77325	147.76443	157.13802	
749	7.480	274.50284	150.39447	292.48718	276.77295	147.76451	157.13809	
750	7.490	274.50339	150.39474	292.48721	276.77371	147.76486	157.13855	
751	7.500	274.50391	150.39499	292.48724	276.77481	147.76538	157.13922	
752	7.510	274.50421	150.39514	292.48724	276.77557	147.76591	157.13989	
753	7.520	274.50415	150.39513	292.48724	276.77554	147.76631	157.14029	
754	7.530	274.50378	150.39494	292.48724	276.77475	147.76646	157.14032	
755	7.540	274.50323	150.39467	292.48721	276.77362	147.76645	157.14011	
756	7.550	274.50269	150.39439	292.48718	276.77274	147.76633	157.13986	
757	7.560	274.50220	150.39417	292.48718	276.77237	147.76619	157.13974	
758	7.570	274.50186	150.39398	292.48715	276.77261	147.76605	157.13972	
759	7.580	274.50165	150.39388	292.48712	276.77347	147.76598	157.13983	
760	7.590	274.50156	150.39383	292.48712	276.77505	147.76602	157.14008	
761	7.600	274.50159	150.39384	292.48712	276.77722	147.76620	157.14047	
762	7.610	274.50168	150.39389	292.48712	276.77972	147.76643	157.14087	
763	7.620	274.50189	150.39398	292.48715	276.78223	147.76663	157.14114	
764	7.630	274.50211	150.39410	292.48715	276.78424	147.76669	157.14117	
765	7.640	274.50238	150.39423	292.48718	276.78500	147.76653	157.14087	
766	7.650	274.50259	150.39433	292.48718	276.78381	147.76607	157.14017	
767	7.660	274.50269	150.39438	292.48718	276.78055	147.76532	157.13907	
768	7.670	274.50262	150.39435	292.48718	276.77576	147.76430	157.13763	
769	7.680	274.50244	150.39426	292.48718	276.77072	147.76321	157.13611	
770	7.690	274.50220	150.39415	292.48715	276.76685	147.76239	157.13495	
771	7.700	274.50198	150.39404	292.48712	276.76526	147.76213	157.13461	
772	7.710	274.50180	150.39395	292.48712	276.76630	147.76254	157.13531	
773	7.720	274.50168	150.39389	292.48712	276.76950	147.76355	157.13684	
774	7.730	274.50162	150.39386	292.48712	276.77383	147.76489	157.13889	
775	7.740	274.50159	150.39384	292.48712	276.77817	147.76631	157.14105	
776	7.750	274.50156	150.39383	292.48712	276.78174	147.76764	157.14307	
777	7.760	274.50156	150.39383	292.48712	276.78418	147.76875	157.14467	
778	7.770	274.50159	150.39384	292.48712	276.78549	147.76958	157.14572	
779	7.780	274.50159	150.39384	292.48712	276.78583	147.77013	157.14615	
780	7.790	274.50159	150.39384	292.48712	276.78540	147.77045	157.14607	
781	7.800	274.50162	150.39384	292.48712	276.78452	147.77058	157.14554	
782	7.810	274.50162	150.39384	292.48712	276.78342	147.77057	157.14470	
783	7.820	274.50162	150.39384	292.48712	276.78247	147.77040	157.14374	
784	7.830	274.50159	150.39384	292.48712	276.78204	147.77010	157.14294	
785	7.840	274.50159	150.39383	292.48712	276.78241	147.76970	157.14255	
786	7.850	274.50159	150.39383	292.48712	276.78345	147.76935	157.14264	
787	7.860	274.50159	150.39383	292.48712	276.78491	147.76915	157.14310	
788	7.870	274.50159	150.39383	292.48712	276.78635	147.76910	157.14377	
789	7.880	274.50162	150.39386	292.48712	276.78729	147.76913	157.14444	
790	7.890	274.50171	150.39389	292.48712	276.78763	147.76920	157.14496	
791	7.900	274.50180	150.39395	292.48712	276.78745	147.76921	157.14526	
792	7.910	274.50198	150.39404	292.48712	276.78683	147.76921	157.14539	
793	7.920	274.50220	150.39415	292.48715	276.78595	147.76923	157.14545	
794	7.930	274.50241	150.39426	292.48715	276.78503	147.76926	157.14542	
795	7.940	274.50262	150.39435	292.48718	276.78421	147.76924	157.14529	
796	7.950	274.50269	150.39439	292.48718	276.78357	147.76915	157.14499	
797	7.960	274.50259	150.39435	292.48718	276.78326	147.76898	157.14456	
798	7.970	274.50241	150.39426	292.48715	276.78357	147.76878	157.14410	
799	7.980	274.50217	150.39415	292.48715	276.78467	147.76859	157.14371	
800	7.990	274.50195	150.39404	292.48715	276.78625	147.76837	157.14336	
801	8.000	274.50180	150.39397	292.48712	276.78802	147.76810	157.14291	
802	8.010	274.50168	150.39391	292.48712	276.78952	147.76779	157.14246	
803	8.020	274.50162	150.39386	292.48712	276.79044	147.76758	157.14212	
804	8.030	274.50159	150.39384	292.48712	276.79074	147.76753	157.14212	
805	8.040	274.50159	150.39384	292.48712	276.79095	147.76768	157.14240	
806	8.050	274.50159	150.39384	292.48712	276.79147	147.76793	157.14282	
807	8.060	274.50159	150.39384	292.48712	276.79239	147.76817	157.14322	
808	8.070	274.50162	150.39384	292.48712	276.79352	147.76837	157.14346	
809	8.080	274.50162	150.39386	292.48712	276.79434	147.76852	157.14371	
810	8.090	274.50162	150.39386	292.48712	276.79453	147.76872	157.14400	
811	8.100	274.50162	150.39386	292.48712	276.79398	147.76895	157.14444	
812	8.110	274.50159	150.39384	292.48712	276.79285	147.76921	157.14493	
813	8.120	274.50156	150.39383	292.48712	276.79150	147.76942	157.14536	
814	8.130	274.50153	150.39381	292.48712	276.79013	147.76956	157.14569	
815	8.140	274.50150	150.39380	292.48712	276.78888	147.76964	157.14587	
816	8.150	274.50146	150.39378	292.48712	276.78784	147.76965	157.14597	
817	8.160	274.50146	150.39378	292.48712	276.78717	147.76961	157.14594	
818	8.170	274.50150	150.39380	292.48712	276.78696	147.76955	157.14584	
819	8.180	274.50159	150.39384	292.48715	276.78711	147.76947	157.14569	
820	8.190	274.50180	150.39395	292.48715	276.78754	147.76935	157.14548	
821	8.200	274.50217	150.39413	292.48715	276.78806	147.76920	157.14517	
822	8.210	274.50269	150.39439	292.48718	276.78851	147.76901	157.14484	
823	8.220	274.50345	150.39476	292.48721	276.78885	147.76886	157.14456	
824	8.230	274.50443	150.39525	292.48727	276.78885	147.76883	157.14450	
825	8.240	274.50565	150.39584	292.48734	276.78845	147.76892	157.14467	
826	8.250	274.50696	150.39648	292.48740	276.78775	147.76912	157.14505	
827	8.260	274.50803	150.39702	292.48746	276.78708	147.76935	157.14551	
828	8.270	274.50858	150.39728	292.48749	276.78647	147.76958	157.14594	
829	8.280	274.50851	150.39725	292.48749	276.78601	147.76974	157.14626	
830	8.290	274.50784	150.39693	292.48743	276.78564	147.76985	157.14647	
831	8.300	274.50677	150.39639	292.48737	276.78534	147.76991	157.14658	
832	8.310	274.50543	150.39572	292.48730	276.78497	147.76987	157.14653	
833	8.320	274.50406	150.39507	292.48724	276.78439	147.76973	157.14633	
834	8.330	274.50290	150.39449	292.48718	276.78354	147.76949	157.14594	
835	8.340	274.50211	150.39409	292.48712	276.78250	147.76917	157.14545	
836	8.350	274.50174	150.39392	292.48712	276.78140	147.76881	157.14490	
837	8.360	274.50195	150.39403	292.48712	276.78036	147.76846	157.14438	
838	8.370	274.50275	150.39442	292.48718	276.77963	147.76819	157.14395	
839	8.380	274.50415	150.39513	292.48724	276.77954	147.76804	157.14371	
840	8.390	274.50613	150.39610	292.48737	276.78040	147.76808	157.14374	
841	8.400	274.50848	150.39725	292.48749	276.78223	147.76828	157.14395	
842	8.410	274.51074	150.39836	292.48761	276.78482	147.76852	157.14423	
843	8.420	274.51233	150.39915	292.48767	276.78787	147.76868	157.14435	
844	8.430	274.51282	150.39938	292.48770	276.79092	147.76868	157.14417	
845	8.440	274.51224	150.39911	292.48767	276.79355	147.76851	157.14378	
846	8.450	274.51111	150.39856	292.48761	276.79535	147.76826	157.14331	
847	8.460	274.50992	150.39795	292.48755	276.79599	147.76802	157.14288	
848	8.470	274.50870	150.39735	292.48749	276.79535	147.76785	157.14267	
849	8.480	274.50735	150.39670	292.48743	276.79370	147.76776	157.14259	
850	8.490	274.50589	150.39597	292.48734	276.79147	147.76776	157.14267	
851	8.500	274.50449	150.39526	292.48727	276.78915	147.76793	157.14293	
852	8.510	274.50333	150.39470	292.48721	276.78717	147.76825	157.14326	
853	8.520	274.50259	150.39433	292.48718	276.78571	147.76866	157.14355	
854	8.530	274.50226	150.39417	292.48718	276.78470	147.76913	157.14371	
855	8.540	274.50229	150.39420	292.48718	276.78391	147.76962	157.14371	
856	8.550	274.50262	150.39435	292.48718	276.78320	147.77011	157.14366	
857	8.560	274.50311	150.39459	292.48718	276.78259	147.77057	157.14375	
858	8.570	274.50372	150.39490	292.48724	276.78226	147.77095	157.14407	
859	8.580	274.50439	150.39523	292.48727	276.78241	147.77116	157.14461	
860	8.590	274.50510	150.39557	292.48730	276.78308	147.77118	157.14526	
861	8.600	274.50571	150.39587	292.48734	276.78418	147.77106	157.14587	
862	8.610	274.50620	150.39612	292.48737	276.78555	147.77084	157.14633	
863	8.620	274.50668	150.39636	292.48737	276.78708	147.77054	157.14648	
864	8.630	274.50739	150.39670	292.48743	276.78867	147.77014	157.14630	
865	8.640	274.50830	150.39716	292.48746	276.79025	147.76965	157.14572	
866	8.650	274.50931	150.39764	292.48749	276.79178	147.76910	157.14487	
867	8.660	274.51013	150.39806	292.48755	276.79303	147.76851	157.14380	
868	8.670	274.51047	150.39822	292.48758	276.79379	147.76796	157.14272	
869	8.680	274.51016	150.39807	292.48755	276.79404	147.76753	157.14182	
870	8.690	274.50934	150.39766	292.48752	276.79364	147.76735	157.14130	
871	8.700	274.50836	150.39717	292.48749	276.79282	147.76744	157.14136	
872	8.710	274.50745	150.39673	292.48743	276.79190	147.76776	157.14188	
873	8.720	274.50671	150.39636	292.48740	276.79111	147.76819	157.14267	
874	8.730	274.50610	150.39606	292.48737	276.79037	147.76865	157.14359	
